<svg width="32" height="32" viewBox="0 0 32 32" xmlns="http://www.w3.org/2000/svg">
  <defs>
    <linearGradient id="roseGradient" x1="0%" y1="0%" x2="100%" y2="100%">
      <stop offset="0%" style="stop-color:#F06292;stop-opacity:1" />
      <stop offset="100%" style="stop-color:#E91E63;stop-opacity:1" />
    </linearGradient>
  </defs>

  <!-- 简化的玫瑰花轮廓 -->
  <g transform="translate(16,16)">
    <!-- 玫瑰花瓣层次 -->
    <path d="M 0,-8 Q -6,-4 -6,2 Q -3,6 0,8 Q 3,6 6,2 Q 6,-4 0,-8 Z"
          fill="url(#roseGradient)" opacity="0.8"/>
    <path d="M 0,-6 Q -4,-3 -4,1 Q -2,4 0,6 Q 2,4 4,1 Q 4,-3 0,-6 Z"
          fill="#E91E63" opacity="0.6"/>
    <path d="M 0,-3 Q -2,-1 -2,1 Q -1,2 0,3 Q 1,2 2,1 Q 2,-1 0,-3 Z"
          fill="#C2185B" opacity="0.8"/>
  </g>
</svg>