<svg width="32" height="32" viewBox="0 0 32 32" xmlns="http://www.w3.org/2000/svg">
  <!-- 简化透明背景版 -->
  <g transform="translate(16,16) scale(1.15)">
    <path d="M0,-11 C3.5,-11 7,-7 7,0 C7,7 3.5,11 0,11 C-3.5,11 -7,7 -7,0 C-7,-7 -3.5,-11 0,-11" fill="#D4AF37" transform="rotate(0)"/>
    <path d="M0,-11 C3.5,-11 7,-7 7,0 C7,7 3.5,11 0,11 C-3.5,11 -7,7 -7,0 C-7,-7 -3.5,-11 0,-11" fill="#D4AF37" transform="rotate(72)"/>
    <path d="M0,-11 C3.5,-11 7,-7 7,0 C7,7 3.5,11 0,11 C-3.5,11 -7,7 -7,0 C-7,-7 -3.5,-11 0,-11" fill="#D4AF37" transform="rotate(144)"/>
    <path d="M0,-11 C3.5,-11 7,-7 7,0 C7,7 3.5,11 0,11 C-3.5,11 -7,7 -7,0 C-7,-7 -3.5,-11 0,-11" fill="#D4AF37" transform="rotate(216)"/>
    <path d="M0,-11 C3.5,-11 7,-7 7,0 C7,7 3.5,11 0,11 C-3.5,11 -7,7 -7,0 C-7,-7 -3.5,-11 0,-11" fill="#D4AF37" transform="rotate(288)"/>
    <circle cx="0" cy="0" r="2.8" fill="#1B3A2B" />
  </g>
</svg>